<svg viewBox="0 0 96 96" xmlns="http://www.w3.org/2000/svg" xmlns:xlink="http://www.w3.org/1999/xlink" id="Icons_Suit_M" overflow="hidden"><g id="Icons"><path d="M81.891 75.447 77.121 28.716C76.3008 21.1907 70.5236 15.1571 63.041 14.011L62.892 14 33.11 14 32.958 14.012C25.4807 15.1686 19.7094 21.1982 18.881 28.719L14.028 75.352C13.9334 75.8349 14.04 76.3355 14.323 76.738 14.6689 77.2183 15.1973 77.5352 15.784 77.614L25.323 78.574C25.4376 78.5966 25.5542 78.608 25.671 78.608 26.0421 78.6062 26.4038 78.4915 26.708 78.279 27.1804 77.9413 27.4955 77.4263 27.581 76.852L29.491 62.815C29.491 62.803 29.51 62.805 29.51 62.815L29.51 81C29.51 81.5523 29.9577 82 30.51 82L65.492 82C66.0443 82 66.492 81.5523 66.492 81L66.492 63.183C66.492 63.171 66.51 63.17 66.511 63.183L68.334 76.916C68.5137 77.9027 69.3822 78.6137 70.385 78.595 70.418 78.595 70.452 78.595 70.485 78.59L80.215 77.602C81.2049 77.4248 81.9192 76.5544 81.9 75.549 81.9 75.515 81.894 75.481 81.891 75.447ZM35.444 16 36.185 16 45.864 47.459C45.8653 47.4644 45.8621 47.4698 45.8567 47.4711 45.8526 47.4721 45.8483 47.4705 45.846 47.467L31.156 23.967ZM38.278 16 57.722 16 48.01 47.568C48.0075 47.5735 48.0009 47.576 47.9954 47.5734 47.993 47.5723 47.9911 47.5704 47.99 47.568ZM59.815 16 60.556 16 64.844 23.963 50.154 47.463C50.1509 47.4676 50.1447 47.4688 50.1401 47.4657 50.1366 47.4634 50.135 47.4591 50.136 47.455ZM31.51 80 31.51 44.915C31.51 44.3627 31.0623 43.915 30.51 43.915 29.9577 43.915 29.51 44.3627 29.51 44.915L29.51 47.833 25.575 76.594 16.009 75.6 20.869 28.927C21.5971 22.3427 26.6299 17.0538 33.17 16L28.844 24.033 46.821 52.8 40.152 63.47 40 63.713 40 80ZM70.338 76.593C70.317 76.593 70.309 76.593 70.306 76.585L66.492 47.838 66.492 44.915C66.492 44.3627 66.0443 43.915 65.492 43.915 64.9397 43.915 64.492 44.3627 64.492 44.915L64.492 80 42 80 42 64.287 67.156 24.037 62.83 16C69.4045 16.9841 74.4712 22.307 75.13 28.922L79.896 75.622Z"/><path d="M47.028 68.345C45.9527 68.3456 45.0806 67.4743 45.08 66.399 45.0794 65.3237 45.9507 64.4516 47.026 64.451 48.1013 64.4505 48.9734 65.3217 48.974 66.397 48.974 66.398 48.974 66.399 48.974 66.4 48.9707 67.4735 48.1015 68.3432 47.028 68.347Z"/><path d="M47.028 75.159C45.9527 75.1595 45.0806 74.2883 45.08 73.213 45.0794 72.1377 45.9507 71.2655 47.026 71.265 48.1013 71.2645 48.9734 72.1357 48.974 73.211 48.974 73.2113 48.974 73.2117 48.974 73.212 48.9707 74.2855 48.1015 75.1552 47.028 75.159Z"/></g></svg>