<svg viewBox="0 0 96 96" xmlns="http://www.w3.org/2000/svg" xmlns:xlink="http://www.w3.org/1999/xlink" id="Icons_Grain_M" overflow="hidden"><g id="Icons"><path d="M62.9006 36.1881C62.5101 35.7976 61.877 35.7976 61.4865 36.1881L30.7229 66.9517C30.7161 66.9584 30.7142 66.9677 30.7077 66.9745L30.7038 66.9708C16.8571 81.587 7.5173 81.8575 7.4245 81.8585L7.4299 83.8585C7.8399 83.8585 17.6271 83.6822 32.156 68.3467L62.9006 37.6021C63.291 37.2116 63.291 36.5786 62.9006 36.1881Z"/><path d="M68.1542 33.48C71.2924 33.48 76.7662 32.9286 80.2242 29.47 85.301 24.3932 84.8204 14.2672 84.8204 14.2672 84.8204 14.2672 84.564 14.255 84.1117 14.2551 81.7239 14.2551 73.886 14.5951 69.6176 18.8634 64.5411 23.9407 65.7289 33.36 65.7289 33.36 66.5344 33.4458 67.3441 33.4859 68.1542 33.48ZM71.0322 20.2778C74.1935 17.1165 79.8591 16.4246 82.81 16.2869 82.6491 19.6216 81.7716 25.0948 78.81 28.056 75.8308 31.0352 70.8548 31.48 68.1538 31.48 67.9633 31.48 67.7821 31.4777 67.6117 31.4739 67.5485 28.7933 67.8642 23.4461 71.0322 20.2781Z"/><path d="M60.8084 52.3564C60.74 52.3551 60.6716 52.3544 60.6033 52.3544 53.4979 52.3544 46.6633 59.5789 46.6633 59.5789 46.6633 59.5789 53.3343 67.2119 60.5126 67.3535 60.5805 67.3549 60.6491 67.3555 60.7168 67.3555 67.8041 67.3555 73.6579 60.1115 73.6579 60.1115 73.6579 60.1115 67.9866 52.4981 60.8084 52.3564ZM60.7167 65.3555 60.552 65.3539C56.092 65.2659 51.6656 61.6632 49.5145 59.6276 51.9939 57.4652 56.4638 54.3544 60.6033 54.3544L60.7689 54.3561C65.2256 54.444 69.1735 58.0861 70.9921 60.0619 69.1265 61.9422 65.1314 65.3555 60.7167 65.3555Z"/><path d="M46.6662 66.4986C46.5979 66.4973 46.5295 66.4966 46.4612 66.4966 39.3558 66.4966 32.5212 73.721 32.5212 73.721 32.5212 73.721 39.1922 81.3541 46.3705 81.4957 46.4384 81.497 46.5071 81.4977 46.5748 81.4977 53.6621 81.4977 59.516 74.2535 59.516 74.2535 59.516 74.2535 53.8445 66.64 46.6662 66.4986ZM46.5746 79.4977 46.4098 79.4961C41.9498 79.4081 37.5234 75.8053 35.3723 73.7697 37.8518 71.6073 42.3217 68.4966 46.4612 68.4966L46.6268 68.4982C51.0812 68.5861 55.0268 72.2242 56.8468 74.2009 54.9732 76.0817 50.9649 79.4977 46.5746 79.4977Z"/><path d="M74.9505 38.2143C74.8822 38.213 74.8138 38.2123 74.7454 38.2123 67.6401 38.2123 60.8054 45.4367 60.8054 45.4367 60.8054 45.4367 67.4765 53.0698 74.6548 53.2114 74.7227 53.2128 74.7913 53.2134 74.859 53.2134 81.9463 53.2134 87.8002 45.9693 87.8002 45.9693 87.8002 45.9693 82.1288 38.356 74.9505 38.2143ZM74.8588 51.2134 74.694 51.2118C70.234 51.1238 65.8078 47.521 63.6566 45.4855 66.1366 43.323 70.6059 40.2123 74.7454 40.2123L74.911 40.2139C79.3655 40.3018 83.311 43.94 85.131 45.9166 83.2574 47.7974 79.2492 51.2134 74.8588 51.2134Z"/><path d="M39.4878 52.4035C39.4878 52.4035 46.8518 45.4366 46.7102 38.2583 46.5686 31.08 38.9552 25.4088 38.9552 25.4088 38.9552 25.4088 31.5715 31.3759 31.7131 38.5542 31.8547 45.7325 39.4878 52.4035 39.4878 52.4035ZM39.0109 28.0745C40.9881 29.8873 44.6222 33.8195 44.7109 38.2978 44.7988 42.7518 41.3821 47.3112 39.4318 49.544 37.3941 47.3891 33.8009 42.9684 33.713 38.5148 33.6248 34.0588 37.1071 29.9709 39.0109 28.0745Z"/><path d="M25.3457 66.5457C25.3457 66.5457 32.7097 59.5787 32.5681 52.4005 32.4265 45.2223 24.8131 39.5505 24.8131 39.5505 24.8131 39.5505 17.4293 45.518 17.571 52.6964 17.7127 59.8748 25.3457 66.5457 25.3457 66.5457ZM24.8688 42.2167C26.846 44.0294 30.4801 47.9617 30.5688 52.4399 30.6567 56.8939 27.2401 61.4534 25.2897 63.6862 23.2521 61.5313 19.6589 57.1105 19.571 52.6569 19.4827 48.2009 22.965 44.113 24.8688 42.2167Z"/><path d="M53.63 38.2614C53.63 38.2614 60.994 31.2945 60.8524 24.1162 60.7108 16.9379 53.0974 11.2667 53.0974 11.2667 53.0974 11.2667 45.7136 17.2338 45.8552 24.4121 45.9968 31.5904 53.63 38.2614 53.63 38.2614ZM53.15 13.9355C55.1279 15.7565 58.7648 19.7019 58.8527 24.1555 58.9406 28.6091 55.5239 33.169 53.5736 35.4018 51.536 33.2469 47.9428 28.8261 47.8549 24.3725 47.767 19.9189 51.2456 15.8331 53.15 13.9355Z"/></g></svg>