<svg viewBox="0 0 96 96" xmlns="http://www.w3.org/2000/svg" xmlns:xlink="http://www.w3.org/1999/xlink" id="Icons_PetriDish1_M" overflow="hidden"><g id="Icons"><path d="M47.917 32.6479C50.8574 32.6478 53.2409 30.2641 53.2408 27.3237 53.2407 24.3833 50.857 21.9998 47.9166 21.9999 44.9764 22 42.5929 24.3835 42.5928 27.3237 42.596 30.2628 44.9779 32.6447 47.917 32.6479ZM47.917 24C49.7528 24.0001 51.2409 25.4884 51.2408 27.3242 51.2407 29.16 49.7524 30.6481 47.9166 30.648 46.0808 30.6479 44.5927 29.1596 44.5928 27.3238 44.5928 27.3238 44.5928 27.3237 44.5928 27.3237 44.595 25.4888 46.0821 24.0019 47.917 24Z"/><path d="M43.458 44.1875C43.4581 45.9338 44.8738 47.3493 46.6201 47.3492 48.3664 47.3491 49.7819 45.9334 49.7818 44.1871 49.7817 42.4409 48.3662 41.0255 46.62 41.0254 44.8744 41.0273 43.4598 42.4419 43.458 44.1875ZM47.7817 44.1875C47.7816 44.8292 47.2613 45.3493 46.6196 45.3492 45.9779 45.3491 45.4578 44.8288 45.4579 44.1871 45.458 43.5454 45.9783 43.0253 46.62 43.0254 47.2614 43.0262 47.7811 43.5461 47.7817 44.1875Z"/><path d="M64.3481 41.89C59.9748 41.8897 56.4294 45.4347 56.4291 49.808 56.4288 54.1813 59.9738 57.7267 64.3471 57.727 68.7204 57.7273 72.2658 54.1823 72.2661 49.809 72.2661 49.8088 72.2661 49.8087 72.2661 49.8085 72.2611 45.4375 68.7191 41.8952 64.3481 41.89ZM64.3481 55.727C61.0794 55.7273 58.4294 53.0777 58.4291 49.809 58.4288 46.5403 61.0784 43.8903 64.3471 43.89 67.6158 43.8897 70.2658 46.5393 70.2661 49.808 70.2661 49.8082 70.2661 49.8083 70.2661 49.8085 70.2626 53.0756 67.6152 55.7233 64.3481 55.7271Z"/><path d="M37.6748 54.3486C37.6748 50.5724 34.6136 47.5112 30.8374 47.5112 27.0612 47.5112 24 50.5724 24 54.3486 24 58.1248 27.0612 61.186 30.8374 61.186 34.6118 61.1816 37.6704 58.123 37.6748 54.3486ZM30.8374 59.186C28.1658 59.186 26 57.0202 26 54.3486 26 51.677 28.1658 49.5112 30.8374 49.5112 33.509 49.5112 35.6748 51.677 35.6748 54.3486 35.6719 57.019 33.5078 59.1831 30.8374 59.186Z"/><path d="M30.0508 43.89 30.104 43.89C31.9063 43.8956 33.5584 42.8866 34.3765 41.2807 34.4536 41.1285 34.6226 41.0461 34.79 41.079L34.7905 41.079C37.3948 41.5892 39.9196 39.8916 40.4297 37.2873 40.9399 34.683 39.2423 32.1582 36.638 31.6481 36.6293 31.6464 36.6206 31.6447 36.6118 31.643 32.2531 30.8205 27.8705 32.9528 25.8276 36.89 25.1406 38.2363 25.1235 39.8266 25.7813 41.1874 26.5731 42.8283 28.2289 43.8765 30.0508 43.89ZM27.6069 37.8036C28.9884 35.1406 31.7369 33.4676 34.7369 33.4636 35.2388 33.4636 35.7396 33.5115 36.2325 33.6066 37.0985 33.7759 37.8352 34.341 38.2232 35.1335 38.9011 36.5265 38.3214 38.2052 36.9284 38.8831 36.3828 39.1486 35.7658 39.2301 35.17 39.1152 34.1303 38.9204 33.0856 39.4288 32.5973 40.3672 32.1266 41.3101 31.1588 41.9014 30.105 41.89L30.0723 41.89C29.0063 41.8907 28.0356 41.2763 27.58 40.3125 27.196 39.5181 27.2059 38.5897 27.6069 37.8037Z"/><path d="M58.9351 35.06C58.629 36.8508 59.8326 38.5506 61.6234 38.8567 62.2883 38.9703 62.972 38.8768 63.582 38.5888 64.5188 38.1464 65.1943 37.2907 65.4072 36.2768 65.975 33.4843 64.6441 30.6499 62.1328 29.3031 61.2164 28.8197 60.1266 28.7928 59.1875 29.2304 57.5411 30.0035 56.8332 31.965 57.6063 33.6114 57.8914 34.2184 58.355 34.7239 58.9351 35.0604ZM60.0376 31.0409C60.4065 30.8691 60.8345 30.8797 61.1943 31.0697 62.9234 31.9966 63.8399 33.9479 63.4492 35.8705 63.3656 36.2688 63.1 36.6048 62.7319 36.7782 62.0854 37.0817 61.3152 36.8037 61.0117 36.1572 60.8928 35.904 60.8592 35.619 60.916 35.3451 61.0788 34.5476 60.6986 33.7379 59.981 33.3539 59.3501 33.0185 59.1105 32.2352 59.4459 31.6043 59.5771 31.3575 59.7847 31.1599 60.0376 31.0409Z"/><path d="M61.5859 63.7686C60.621 63.6112 59.636 63.6251 58.6759 63.8096 58.5637 63.471 58.4175 63.1446 58.2396 62.8354 58.3026 62.7502 58.3545 62.6573 58.394 62.559 58.5104 62.2802 58.7567 62.0767 59.0525 62.015 59.5799 61.8493 59.8731 61.2875 59.7075 60.7602 59.55 60.2589 59.0319 59.9647 58.5208 60.0864 57.8317 60.2722 57.2347 60.7042 56.8428 61.3007 56.2166 60.8601 55.4749 60.6126 54.7096 60.5889 54.6865 60.5884 54.6652 60.5806 54.6424 60.5789 54.855 60.1472 55.1735 59.7764 55.5683 59.5013 56.6291 58.7847 55.6293 57.0513 54.5588 57.7744 54.0314 58.1261 53.5737 58.5724 53.2088 59.0908 53.1004 58.8128 53.0088 58.5286 52.9345 58.2397 52.772 57.6112 52.5058 57.0143 52.1468 56.4735 52.1805 56.4403 52.2117 56.4046 52.24 56.3667 52.4704 55.944 52.8864 55.6544 53.3628 55.585 53.8918 55.4337 54.2024 54.8868 54.0613 54.355 53.9055 53.8296 53.3623 53.5212 52.8313 53.6566 51.9882 53.8354 51.2437 54.3259 50.7466 55.03 50.4549 54.8206 50.1437 54.6397 49.8173 54.49 49.8643 53.9835 50.0543 53.5007 50.3652 53.0981 50.7429 52.6951 50.7224 52.0623 50.3194 51.6846 49.9302 51.3199 49.3232 51.3248 48.94 51.6958 48.3751 52.341 48.0069 53.1345 47.879 53.9825 47.7521 53.9725 47.629 53.9475 47.5005 53.9453 47.1456 53.9433 46.7913 53.9734 46.4418 54.0353 46.3349 53.497 46.3129 52.9453 46.3767 52.4002 46.3733 51.8493 45.9276 51.4036 45.3767 51.4002 44.8296 51.4124 44.3889 51.8531 44.3767 52.4002 44.2962 53.1824 44.3566 53.9726 44.5549 54.7335 44.0675 55.0235 43.63 55.3899 43.2589 55.8187 42.8156 55.5582 42.4265 55.2148 42.1129 54.8073 41.824 54.344 41.2237 54.1866 40.7447 54.4486 40.2713 54.73 40.1115 55.3394 40.386 55.8168 40.8864 56.5117 41.518 57.102 42.2452 57.5543 42.2008 57.6752 42.1446 57.7879 42.1074 57.9138L42.0464 58.1286C41.8537 58.8391 41.7516 59.5712 41.7425 60.3073 41.3852 60.3221 41.0282 60.2703 40.6898 60.1545 39.4661 59.746 38.9414 61.6768 40.1581 62.0832 40.7363 62.2721 41.3463 62.3438 41.9525 62.2941 42.1334 63.1228 42.4276 63.9227 42.8268 64.6711 42.3729 64.8013 41.9036 64.8699 41.4315 64.8753 40.8792 64.8944 40.447 65.3577 40.4661 65.9099 40.4843 66.4354 40.9061 66.8571 41.4315 66.8753 42.3063 66.8735 43.173 66.7081 43.9869 66.3876 44.13 66.5611 44.2622 66.7392 44.4185 66.9069 44.8729 67.387 45.3667 67.8282 45.8947 68.2259 45.6438 68.4734 45.3263 68.6426 44.981 68.7128 43.7259 68.9953 44.2571 70.924 45.5127 70.6415 46.3352 70.4491 47.0675 69.9818 47.5885 69.3168 48.1668 69.629 48.7695 69.8938 49.3907 70.1085 49.2628 70.6725 49.0118 71.2012 48.6558 71.6569 48.3802 72.1342 48.5402 72.7444 49.0145 73.0251 49.4933 73.2895 50.0952 73.1317 50.3827 72.6664 50.8527 72.0482 51.177 71.3317 51.3312 70.5705 51.8183 70.6484 52.3105 70.6902 52.8037 70.6955 53.0247 70.6955 53.243 70.6806 53.4609 70.6647 53.3597 71.0072 53.2162 71.3357 53.0335 71.6426 52.772 72.1295 52.9548 72.7362 53.4417 72.9977 53.9038 73.2458 54.479 73.0951 54.76 72.6523 55.1972 71.9106 55.4748 71.0858 55.575 70.2307 56.4314 69.9375 57.1984 69.4298 57.8028 68.7559 58.0834 69.1066 58.1368 69.5876 57.9398 69.9912 57.7964 70.5233 58.1078 71.0718 58.6383 71.2212 59.1689 71.3534 59.71 71.0462 59.8683 70.5228 60.3531 69.2262 59.9051 67.7656 58.7767 66.9638 58.8889 66.5786 58.9548 66.1815 58.9732 65.7807 59.6556 65.6235 60.3614 65.595 61.0542 65.6969 61.5844 65.8262 62.1235 65.5201 62.2842 64.9986 62.4266 64.4667 62.1156 63.9189 61.5859 63.7686ZM54.1059 68.5718C51.0318 68.9891 47.9509 67.8549 45.8812 65.5439 44.0727 63.7456 43.3481 61.126 43.9755 58.6539L44.0255 58.4786C44.4307 56.9551 45.8269 55.9075 47.4029 55.9444 47.4244 55.9444 47.4454 55.9444 47.4664 55.9449 49.147 55.9521 50.6052 57.1067 50.9977 58.7408 51.8072 61.8717 53.4391 62.5616 54.6656 62.5885 55.9464 62.6173 56.859 64.0085 56.9703 65.2823 57.0405 66.0859 56.9019 68.0151 54.106 68.5718Z"/><path d="M31.88 39.5972C32.3625 38.3533 33.6891 37.6565 34.9871 37.9652 35.5249 38.0932 36.0646 37.761 36.1926 37.2233 36.3142 36.7122 36.02 36.194 35.5188 36.0366 33.3491 35.482 31.0926 36.5547 30.1531 38.5876 29.65 39.7573 31.3719 40.7772 31.88 39.5972Z"/><path d="M48 10C27.0132 10 10 27.0132 10 48 10 68.9868 27.0132 86 48 86 68.9868 86 86 68.9868 86 48 85.9761 27.0231 68.9769 10.0239 48 10ZM48 84C28.1177 84 12 67.8822 12 48 12 28.1177 28.1177 12 48 12 67.8822 12 84 28.1177 84 48 83.9776 67.873 67.873 83.9776 48 84Z"/><path d="M48 17C30.8792 17 17 30.8792 17 48 17 65.1208 30.8792 79 48 79 65.1208 79 79 65.1208 79 48 78.9805 30.8872 65.1128 17.0195 48 17ZM48 77C31.9837 77 19 64.0163 19 48 19 31.9837 31.9837 19 48 19 64.0163 19 77 31.9837 77 48 76.9819 64.0088 64.0088 76.9819 48 77Z"/><path d="M53.1057 38.9514C53.7961 38.9283 54.337 38.3499 54.3139 37.6596 54.2918 37.0016 53.7636 36.4734 53.1057 36.4514 52.4153 36.4745 51.8744 37.0529 51.8975 37.7432 51.9196 38.4012 52.4478 38.9294 53.1057 38.9514Z"/><path d="M38.4042 29.4387C39.0946 29.4156 39.6355 28.8372 39.6124 28.1469 39.5903 27.4889 39.0621 26.9607 38.4042 26.9387 37.7138 26.9618 37.1729 27.5402 37.196 28.2305 37.2181 28.8885 37.7463 29.4167 38.4042 29.4387Z"/><path d="M38.26 45.0994C37.5696 45.1225 37.0287 45.7009 37.0518 46.3912 37.0739 47.0492 37.6021 47.5774 38.26 47.5994 38.9504 47.5763 39.4913 46.9979 39.4682 46.3076 39.4461 45.6496 38.9179 45.1214 38.26 45.0994Z"/><path d="M36.6747 63.26C35.9843 63.2831 35.4434 63.8615 35.4665 64.5518 35.4886 65.2097 36.0168 65.738 36.6747 65.76 37.3651 65.7369 37.906 65.1585 37.8829 64.4682 37.8608 63.8102 37.3326 63.282 36.6747 63.26Z"/><path d="M66.0775 59.8008C65.3871 59.8239 64.8462 60.4023 64.8693 61.0926 64.8914 61.7506 65.4196 62.2788 66.0775 62.3008 66.7679 62.2777 67.3088 61.6993 67.2857 61.009 67.2636 60.351 66.7354 59.8228 66.0775 59.8008Z"/></g></svg>