<svg viewBox="0 0 96 96" xmlns="http://www.w3.org/2000/svg" xmlns:xlink="http://www.w3.org/1999/xlink" id="Icons_Disconnected_M" overflow="hidden"><g id="Icons"><path d="M47 23 47 42 41 42 41 44 55 44 55 42 49 42 49 21 33.931 21C33.3787 16.6164 29.3774 13.5105 24.9937 14.0627 20.6101 14.615 17.5042 18.6164 18.0565 23 18.6088 27.3836 22.6101 30.4895 26.9937 29.9373 30.6191 29.4805 33.4742 26.6254 33.931 23ZM26 28C22.6863 28 20 25.3137 20 22 20 18.6863 22.6863 16 26 16 29.3137 16 32 18.6863 32 22 31.9961 25.3121 29.3121 27.9961 26 28Z"/><path d="M70 66C65.9711 66.0037 62.5736 69.0027 62.07 73L49 73 49 54 55 54 55 52 41 52 41 54 47 54 47 75 62.069 75C62.6213 79.3836 66.6226 82.4895 71.0063 81.9372 75.3899 81.385 78.4958 77.3836 77.9435 73 77.4393 68.9976 74.034 65.9968 70 66ZM70 80C66.6863 80 64 77.3137 64 74 64 70.6863 66.6863 68 70 68 73.3137 68 76 70.6863 76 74 75.9961 77.3121 73.3121 79.9961 70 80Z"/></g></svg>