<svg viewBox="0 0 96 96" xmlns="http://www.w3.org/2000/svg" xmlns:xlink="http://www.w3.org/1999/xlink" id="Icons_Microscope_M" overflow="hidden"><g id="Icons"><rect x="35.252" y="57.229" width="2" height="18.003" transform="matrix(0.382667 -0.923886 0.923886 0.382667 -38.81 74.379)"/><path d="M59.775 81C72.4609 69.585 73.4912 50.0474 62.0762 37.3614 60.6757 35.805 59.1207 34.3949 57.435 33.153L65.623 13.442 62.816 12.342 65.008 6.962 57.663 3.888 55.454 9.309 52.66 8.209 35.376 49.831C34.5302 51.9306 34.746 54.3089 35.956 56.222L34.169 60.222 41.516 63.3 43.3 59.291C45.5381 58.795 47.4067 57.2639 48.333 55.167L49.188 53 61.425 53C61.8075 54.6393 62.0034 56.3166 62.009 58 61.9944 70.6532 51.773 80.9242 39.12 81L20 81 20 88 76 88 76 81ZM58.753 6.512 62.408 8.041 60.962 11.589 57.308 10.06ZM36.829 59.172 37.62 57.402 41.275 58.93 40.484 60.7ZM46.494 54.391C45.806 55.9496 44.3873 57.0635 42.71 57.362L37.754 55.289C36.7949 53.9121 36.5974 52.1436 37.229 50.589L53.754 10.79 62.994 14.559 53.62 37.116C50.6449 36.5033 47.7364 38.4185 47.1237 41.3937 46.671 43.5921 47.5996 45.8451 49.47 47.086ZM49 42.5C49 40.567 50.567 39 52.5 39 54.433 39 56 40.567 56 42.5 56 44.433 54.433 46 52.5 46 50.567 46 49 44.433 49 42.5ZM64.009 58C64.0008 55.8882 63.7205 53.7862 63.175 51.746L62.975 51 50.006 51 51.306 47.865C54.2678 48.5242 57.2031 46.6575 57.8623 43.6957 58.3633 41.4445 57.405 39.12 55.463 37.876L56.632 35.068C69.3221 44.7423 71.7669 62.8723 62.0925 75.5624 60.5326 77.6086 58.7062 79.4373 56.662 81L48.806 81C58.0185 77.065 63.9988 68.0177 64.009 58ZM74 86 22 86 22 83 39.005 83 39.005 83C39.044 83 39.082 83 39.12 83L74 83Z"/></g></svg>