<svg viewBox="0 0 96 96" xmlns="http://www.w3.org/2000/svg" xmlns:xlink="http://www.w3.org/1999/xlink" id="Icons_WaningCrescentMoon_M" overflow="hidden"><g id="Icons"><path d="M48 10C46.2 10 44.4 10.1 42.6 10.4 42.3 10.4 42 10.5 41.6 10.5 41.4 10.5 41.2 10.6 41 10.6 40.5 10.7 40 10.8 39.5 10.9 39.5 10.9 39.3 11 39.3 11 18.9 15.8 6.2 36.3 11 56.7 14.4 71 25.8 82.1 40.2 85.2 40.5 85.3 40.7 85.3 41 85.3 41.4 85.4 41.9 85.5 42.3 85.5 42.7 85.6 43 85.6 43.4 85.7 43.5 85.7 43.6 85.7 43.6 85.7 64.4 88.2 83.3 73.3 85.8 52.5 88.3 31.7 73.4 12.8 52.6 10.3 51 10.1 49.5 10 48 10ZM83.3 40.7 69.5 54.4C69.5 53.5 69.3 52.7 69 51.8L82.6 38.2C82.9 39.1 83.1 39.9 83.3 40.7ZM82 36.1 68.1 50C67.7 49.4 67.2 48.9 66.6 48.5L81.2 33.9C81.4 34.6 81.7 35.4 82 36.1ZM43 63.3 36.8 69.5C36.6 68.7 36.4 67.9 36.2 67.1L65.6 37.7C66.3 38.1 67 38.4 67.8 38.5L58.5 47.8C57 48.5 55.8 49.7 55.1 51.2L46 60.3C44.7 60.7 43.6 61.9 43 63.3ZM43.6 68.6 38.2 74C37.9 73.2 37.7 72.5 37.4 71.7L42.6 66.5C42.9 67.2 43.2 67.9 43.6 68.6ZM63.4 34C63.5 34.8 63.8 35.5 64.2 36.2L35.7 64.7C35.5 63.9 35.4 63 35.2 62.2L63.4 34ZM72 33.2C72 35 70.5 36.5 68.7 36.5 66.9 36.5 65.4 35 65.4 33.2 65.4 31.4 66.9 29.9 68.7 29.9 70.5 29.9 72 31.4 72 33.2 72 33.2 72 33.2 72 33.2ZM48.2 61.8C50.2 61.8 51.8 63.4 51.8 65.4 51.8 67.4 50.2 69 48.2 69 46.2 69 44.6 67.4 44.6 65.4 44.6 65.4 44.6 65.4 44.6 65.4 44.6 63.4 46.3 61.8 48.2 61.8L48.2 61.8ZM51.4 60.8C50.8 60.4 50 60 49.3 59.9L54.4 54.8C54.4 55.7 54.6 56.5 54.9 57.3L51.4 60.8ZM56 59.1C56.4 59.7 57 60.2 57.5 60.6L53.7 64.4C53.6 63.6 53.2 62.9 52.8 62.3L56 59.1ZM56.4 54.5C56.4 51.4 58.9 48.9 62 48.9 65.1 48.9 67.6 51.4 67.6 54.5 67.6 57.6 65.1 60.1 62 60.1 62 60.1 62 60.1 62 60.1 58.9 60 56.4 57.5 56.4 54.5L56.4 54.5ZM80.2 32 64.8 47.5C64 47.2 63.1 47 62.3 47L71.5 37.8C72.2 37.4 72.9 36.7 73.3 36L79.2 30.1C79.5 30.7 79.9 31.3 80.2 32ZM78.1 28.3 73.9 32.5C73.8 31.7 73.5 31 73.1 30.3L76.9 26.5C77.3 27 77.7 27.6 78.1 28.3ZM75.6 24.9 71.7 28.8C71 28.4 70.3 28.1 69.5 28L74.2 23.3C74.6 23.8 75.1 24.3 75.6 24.9ZM72.7 21.9 65.9 28.7C65.2 29.1 64.5 29.8 64.1 30.5L34.8 59.8C34.7 58.9 34.5 58 34.4 57.1L71.1 20.4C71.7 20.9 72.2 21.4 72.7 21.9ZM69.5 19.2 34.2 54.5C34.1 53.5 34.1 52.6 34 51.6L67.7 17.9C68.4 18.3 69 18.7 69.5 19.2ZM66 16.8 33.9 48.9C33.9 48.6 33.9 48.3 33.9 48 33.9 47.3 33.9 46.5 33.9 45.8L64 15.8C64.7 16.1 65.3 16.5 66 16.8ZM36.4 38.4C33.6 38.4 31.4 36.2 31.4 33.4 31.4 30.6 33.6 28.4 36.4 28.4 39.2 28.4 41.4 30.6 41.4 33.4 41.4 36.2 39.1 38.4 36.4 38.4ZM36.6 40.4 34.1 42.9C34.2 42 34.3 41 34.3 40.1 35 40.3 35.6 40.4 36.3 40.4 36.4 40.4 36.5 40.4 36.6 40.4ZM62.1 14.9 43.4 33.6C43.4 33.5 43.4 33.4 43.4 33.4 43.4 32.6 43.3 31.8 43 31L59.9 14C60.6 14.3 61.4 14.6 62.1 14.9ZM41.9 29.1C41.5 28.5 40.9 28 40.4 27.6L55.3 12.7C56.1 12.9 56.9 13.1 57.7 13.3L41.9 29.1ZM50.1 12.1C51 12.2 52 12.2 52.9 12.4L38.5 26.7C38 26.5 37.5 26.4 36.9 26.4 37.1 25.8 37.2 25.3 37.4 24.7L50.1 12.1ZM41 15.3 44.1 12.2C45.2 12.1 46.3 12 47.3 12L38.8 20.5C39.5 18.7 40.2 17 41 15.3ZM12 48C12 31.2 23.6 16.7 39.9 12.9 37.8 17.3 36.1 21.8 34.9 26.5 31.1 27.3 28.8 31.1 29.6 34.8 30 36.5 31 38.1 32.5 39.1 30.8 54.2 33.4 69.4 40 83 23.6 79.3 12 64.8 12 48ZM39.9 78.2C39.6 77.5 39.3 76.8 39 76L45 70C45.6 70.4 46.4 70.8 47.1 70.9L39.9 78.2ZM41.7 82.2C41.4 81.5 41 80.8 40.7 80.1L50.3 70.5C51.7 69.9 52.8 68.8 53.4 67.4L59.3 61.5C60.1 61.8 61 62 61.9 62L41.7 82.2ZM45.9 83.9C45 83.8 44 83.8 43.1 83.6L65.8 61C66.9 60.3 67.8 59.4 68.5 58.3L83.7 43.1C83.8 44 83.9 44.9 84 45.9L45.9 83.9ZM80 64.4C76.5 71.1 71.1 76.6 64.3 80.1L80 64.4ZM82.1 59.5 59.5 82.1C58.1 82.6 56.7 82.9 55.3 83.2L83.3 55.2C83 56.7 82.6 58.1 82.1 59.5ZM51.9 83.8C50.8 83.9 49.7 84 48.7 84L84 48.7C84 49.8 83.9 50.9 83.8 51.9L51.9 83.8Z"/><path d="M26.1 54.5C28.1 54.5 29.7 56.1 29.7 58.1 29.7 60.1 28.1 61.7 26.1 61.7 24.1 61.7 22.5 60.1 22.5 58.1 22.5 56.1 24.1 54.5 26.1 54.5 26.1 54.5 26.1 54.5 26.1 54.5M26.1 52.5C23 52.5 20.5 55 20.5 58.1 20.5 61.2 23 63.7 26.1 63.7 29.2 63.7 31.7 61.2 31.7 58.1L31.7 58.1C31.7 55 29.2 52.5 26.1 52.5Z"/></g></svg>