<svg viewBox="0 0 96 96" xmlns="http://www.w3.org/2000/svg" xmlns:xlink="http://www.w3.org/1999/xlink" id="Icons_Flowchart_M" overflow="hidden"><g id="Icons"><path d="M24 75C24 71.6863 21.3137 69 18 69 14.6863 69 12 71.6863 12 75 12 78.3137 14.6863 81 18 81 21.3137 81 24 78.3137 24 75ZM14 75C14 72.7909 15.7909 71 18 71 20.2091 71 22 72.7909 22 75 22 77.2091 20.2091 79 18 79 15.7909 79 14 77.2091 14 75Z"/><path d="M54 75C54 71.6863 51.3137 69 48 69 44.6863 69 42 71.6863 42 75 42 78.3137 44.6863 81 48 81 51.3137 81 54 78.3137 54 75ZM44 75C44 72.7909 45.7909 71 48 71 50.2091 71 52 72.7909 52 75 52 77.2091 50.2091 79 48 79 45.7909 79 44 77.2091 44 75Z"/><path d="M78 69C74.6863 69 72 71.6863 72 75 72 78.3137 74.6863 81 78 81 81.3137 81 84 78.3137 84 75 84 71.6863 81.3137 69 78 69ZM78 79C75.7909 79 74 77.2091 74 75 74 72.7909 75.7909 71 78 71 80.2091 71 82 72.7909 82 75 82 77.2091 80.2091 79 78 79Z"/><path d="M31 30 65 30 65 16 31 16ZM33 18 63 18 63 28 33 28Z"/><path d="M79 66 79 49 55.414 49 49 42.586 49 33 47 33 47 42.586 40.586 49 17 49 17 66 19 66 19 51 40.586 51 47 57.414 47 66 49 66 49 57.414 55.414 51 77 51 77 66ZM48 55.586 42.414 50 48 44.414 53.586 50Z"/></g></svg>