<svg viewBox="0 0 96 96" xmlns="http://www.w3.org/2000/svg" xmlns:xlink="http://www.w3.org/1999/xlink" id="Icons_Dress_M" overflow="hidden"><g id="Icons"><path d="M48 89.024C33.965 89.024 21.132 86.039 14.511 81.231 13.2257 80.3757 12.8358 78.6635 13.624 77.336L37.535 35.712C37.9188 35.1166 38.1162 34.4202 38.102 33.712 38.0846 33.3545 38.0276 33 37.932 32.655L34.871 21.3C34.832 21.2451 34.7694 21.2117 34.702 21.21L26.502 22.01 26.489 22.01C25.8548 22.0063 25.2794 21.6376 25.011 21.063L24.929 20.832 23.137 12.768C22.9333 12.0613 23.2844 11.3131 23.958 11.018L24.058 10.974 31.658 8.174C33.7569 7.41684 35.9688 7.01992 38.2 7L39 7C40.068 6.96348 40.9635 7.79969 41 8.86774 41.0015 8.91181 41.0015 8.95593 41 9L41 10C41 13.866 44.134 17 48 17 51.866 17 55 13.866 55 10L55 9C54.9635 7.93195 55.7997 7.03652 56.8677 7 56.9118 6.99849 56.9559 6.99849 57 7L57.8 7C60.0263 7.01514 62.234 7.40631 64.33 8.157L72.149 11.007C72.8175 11.3276 73.1591 12.0821 72.959 12.796L71.2 20.746C71.1322 21.5044 70.466 22.0666 69.707 22.006L61.261 21.196 58.171 32.669C58.0758 33.0083 58.0185 33.3571 58 33.709 58.0314 34.4312 58.2351 35.1355 58.594 35.763L82.378 77.336C83.0928 78.6689 82.7205 80.3244 81.504 81.223 74.871 86.039 62.039 89.024 48 89.024ZM34.619 19.21C35.4964 19.1855 36.3084 19.6724 36.7 20.458L36.771 20.646 39.871 32.146C40.0109 32.6548 40.0898 33.1785 40.106 33.706 40.1242 34.7779 39.828 35.8316 39.254 36.737L15.368 78.32C15.1014 78.7508 15.2291 79.3157 15.655 79.59 21.985 84.185 34.367 87.024 48.002 87.024 61.637 87.024 74.02 84.185 80.316 79.613 80.7271 79.3166 80.8612 78.765 80.632 78.313L56.832 36.707C56.3219 35.7867 56.0371 34.7586 56.001 33.707 56.0161 33.1858 56.093 32.6681 56.23 32.165L59.335 20.644C59.5722 19.6585 60.5379 19.03 61.535 19.212L69.316 19.962 70.932 12.687 63.655 10.04C61.7756 9.36688 59.7962 9.01529 57.8 9L57 9 57 10C57 14.9706 52.9706 19 48 19 43.0294 19 39 14.9706 39 10L39 9 38.2 9C36.1985 9.01531 34.214 9.36827 32.33 10.044L25.165 12.685 26.782 19.967 34.6 19.21Z"/></g></svg>