<svg viewBox="0 0 96 96" xmlns="http://www.w3.org/2000/svg" xmlns:xlink="http://www.w3.org/1999/xlink" id="Icons_Research_M" overflow="hidden"><g id="Icons"><path d="M85.406 76.019 71.349 61.938C69.197 59.782 65.563 59.846 62.869 61.938L58.707 57.776C69.5762 46.0357 68.87 27.7072 57.1297 16.838 45.3895 5.96886 27.0609 6.67501 16.1918 18.4153 5.3226 30.1555 6.02876 48.4841 17.769 59.3533 28.9383 69.6938 46.2052 69.6269 57.294 59.2L61.454 63.361C60.5634 64.4798 60.016 65.8327 59.878 67.256 59.6919 68.9344 60.268 70.6079 61.448 71.816L75.5 85.892C76.5683 86.941 78.013 87.5174 79.51 87.492 81.4769 87.4579 83.351 86.6498 84.726 85.243 85.9999 84.0021 86.7953 82.3516 86.972 80.582 87.1597 78.9032 86.585 77.2287 85.406 76.019ZM18.42 18.908C24.6663 12.6452 33.5863 9.84273 42.292 11.408 46.0433 12.0538 49.6077 13.513 52.735 15.683 60.1063 20.7184 64.5106 29.073 64.5 38L54 38C53.7082 38 53.431 38.1275 53.241 38.349L48.489 43.893C48.4861 43.8977 48.4799 43.8991 48.4752 43.8962 48.4739 43.8954 48.4728 43.8943 48.472 43.893L44.966 30.742C44.8236 30.2084 44.2756 29.8912 43.742 30.0336 43.4321 30.1163 43.1807 30.3425 43.066 30.642L35.757 49.542C35.7553 49.5472 35.7496 49.5501 35.7444 49.5484 35.7414 49.5474 35.739 49.545 35.738 49.542L30.983 23.818C30.8824 23.275 30.3607 22.9163 29.8176 23.0168 29.4597 23.0831 29.1661 23.3387 29.051 23.684L24.279 38 10.524 38C10.5115 30.839 13.3531 23.9683 18.42 18.908ZM22.57 60.508C15.6257 55.8895 11.2087 48.3181 10.606 40L25 40C25.4306 40.0001 25.8129 39.7245 25.949 39.316L29.71 28.033C29.7117 28.0278 29.7174 28.0249 29.7226 28.0266 29.7256 28.0276 29.728 28.03 29.729 28.033L34.421 53.407C34.5023 53.8472 34.8663 54.1797 35.312 54.221 35.343 54.221 35.374 54.221 35.405 54.221 35.8178 54.2208 36.188 53.9669 36.337 53.582L43.814 34.248C43.8157 34.2428 43.8214 34.2399 43.8266 34.2416 43.8296 34.2426 43.832 34.245 43.833 34.248L47.033 46.248C47.1756 46.7816 47.7237 47.0985 48.2573 46.9559 48.4521 46.9038 48.6267 46.7941 48.758 46.641L54.46 40 64.418 40C63.3277 54.8662 50.3923 66.0338 35.5261 64.9435 34.6058 64.876 33.6896 64.7614 32.781 64.6 29.1245 63.9795 25.643 62.5843 22.57 60.508ZM83.318 83.823C81.369 85.766 78.498 86.061 76.918 84.479L62.863 70.4C62.1042 69.6069 61.7403 68.5158 61.871 67.426 62.0062 66.1267 62.5955 64.9167 63.535 64.009 65.483 62.065 68.354 61.77 69.935 63.353L83.991 77.432C84.7495 78.2253 85.1134 79.3162 84.983 80.406 84.8474 81.7054 84.2578 82.9154 83.318 83.823Z"/></g></svg>