<svg viewBox="0 0 96 96" xmlns="http://www.w3.org/2000/svg" xmlns:xlink="http://www.w3.org/1999/xlink" id="Icons_Crops_M" overflow="hidden"><g id="Icons"><path d="M91 80.859C85.482 79.652 70.659 76.966 48.046 76.966 25.337 76.966 10.514 79.666 5 80.88L5 82.927 5.218 82.879C10.5 81.7 25.256 78.966 48.046 78.966 70.738 78.966 85.494 81.688 90.784 82.858L91 82.906Z"/><path d="M91 70.859C88.864 70.392 85.33 69.706 80.5 69.038L80.5 58.973C82.4462 58.9315 84.3025 58.1464 85.688 56.779L85.688 56.779C87.802 54.379 87.488 50.159 87.477 49.979L87.414 49.195 86.637 49.071C86.609 49.071 86.462 49.045 86.237 49.027 87.1992 47.1635 87.6297 45.071 87.481 42.979L87.418 42.195 86.641 42.071C86.613 42.071 86.466 42.045 86.241 42.027 87.2032 40.1635 87.6336 38.071 87.485 35.979L87.422 35.195 86.645 35.071C86.617 35.071 86.47 35.045 86.245 35.027 87.1943 33.2119 87.6277 31.1712 87.498 29.127 87.498 29.102 87.512 29.081 87.512 29.055L87.512 21C87.512 20.4477 87.0643 20 86.512 20 85.9597 20 85.512 20.4477 85.512 21L85.512 28C84.7374 28.0016 83.9669 28.1121 83.223 28.328 83.374 27.806 83.4709 27.2698 83.512 26.728 83.512 23.971 81.345 21.449 80.512 20.581L80.512 14C80.512 13.4477 80.0643 13 79.512 13 78.9597 13 78.512 13.4477 78.512 14L78.512 20.587C77.68 21.456 75.512 23.987 75.512 26.802 75.5483 27.3143 75.632 27.8221 75.762 28.319 75.0332 28.1101 74.2791 28.0028 73.521 28L73.521 21C73.521 20.4477 73.0733 20 72.521 20 71.9687 20 71.521 20.4477 71.521 21L71.521 29.028C71.3764 31.1047 71.8079 33.1809 72.768 35.028 72.539 35.047 72.392 35.068 72.368 35.072L71.591 35.196 71.528 35.98C71.3793 38.072 71.8098 40.1645 72.772 42.028 72.543 42.047 72.396 42.068 72.372 42.072L71.595 42.196 71.532 42.98C71.3833 45.072 71.8138 47.1645 72.776 49.028 72.547 49.046 72.4 49.068 72.376 49.072L71.599 49.196 71.536 49.98C71.522 50.159 71.211 54.38 73.324 56.78L73.324 56.78C74.7066 58.1442 76.5582 58.9287 78.5 58.973L78.5 68.773C73.395 68.124 67.032 67.527 59.5 67.209L59.5 56.973C61.4462 56.9315 63.3025 56.1464 64.688 54.779L64.688 54.779C66.802 52.379 66.488 48.159 66.477 47.979L66.414 47.195 65.637 47.071C65.609 47.071 65.462 47.045 65.237 47.027 66.1992 45.1635 66.6296 43.071 66.481 40.979L66.418 40.195 65.641 40.071C65.613 40.071 65.466 40.045 65.241 40.027 66.2032 38.1635 66.6337 36.071 66.485 33.979L66.422 33.195 65.645 33.071C65.617 33.071 65.47 33.045 65.245 33.027 66.1943 31.2119 66.6277 29.1712 66.498 27.127 66.498 27.102 66.512 27.081 66.512 27.055L66.512 19C66.512 18.4477 66.0643 18 65.512 18 64.9597 18 64.512 18.4477 64.512 19L64.512 26C63.7374 26.0012 62.9668 26.1116 62.223 26.328 62.374 25.806 62.4709 25.2698 62.512 24.728 62.512 21.971 60.345 19.449 59.512 18.581L59.512 12C59.512 11.4477 59.0643 11 58.512 11 57.9597 11 57.512 11.4477 57.512 12L57.512 18.587C56.68 19.456 54.512 21.987 54.512 24.802 54.5488 25.3142 54.6325 25.822 54.762 26.319 54.0331 26.1106 53.2791 26.0033 52.521 26L52.521 19C52.521 18.4477 52.0733 18 51.521 18 50.9687 18 50.521 18.4477 50.521 19L50.521 27.028C50.3764 29.1047 50.8079 31.1809 51.768 33.028 51.539 33.047 51.392 33.068 51.368 33.072L50.591 33.196 50.528 33.98C50.3793 36.072 50.8098 38.1645 51.772 40.028 51.543 40.047 51.396 40.068 51.372 40.072L50.595 40.196 50.532 40.98C50.3834 43.0723 50.8138 45.1651 51.776 47.029 51.547 47.047 51.4 47.068 51.376 47.072L50.599 47.196 50.536 47.98C50.522 48.159 50.211 52.38 52.324 54.78L52.324 54.78C53.7066 56.1442 55.5582 56.9287 57.5 56.973L57.5 67.133C54.514 67.033 51.375 66.966 48.046 66.966 44.683 66.966 41.514 67.031 38.5 67.136L38.5 56.973C40.4462 56.9315 42.3025 56.1464 43.688 54.779L43.688 54.779C45.802 52.379 45.488 48.159 45.477 47.979L45.414 47.195 44.637 47.071C44.609 47.071 44.462 47.045 44.237 47.027 45.1992 45.1635 45.6296 43.071 45.481 40.979L45.418 40.195 44.641 40.071C44.613 40.071 44.466 40.045 44.241 40.027 45.2032 38.1635 45.6337 36.071 45.485 33.979L45.422 33.195 44.645 33.071C44.617 33.071 44.47 33.045 44.245 33.027 45.1943 31.2119 45.6277 29.1712 45.498 27.127 45.498 27.102 45.512 27.081 45.512 27.055L45.512 19C45.512 18.4477 45.0643 18 44.512 18 43.9597 18 43.512 18.4477 43.512 19L43.512 26C42.7374 26.0012 41.9668 26.1116 41.223 26.328 41.374 25.806 41.4709 25.2698 41.512 24.728 41.512 21.971 39.345 19.449 38.512 18.581L38.512 12C38.512 11.4477 38.0643 11 37.512 11 36.9597 11 36.512 11.4477 36.512 12L36.512 18.587C35.68 19.456 33.512 21.987 33.512 24.802 33.5488 25.3142 33.6325 25.822 33.762 26.319 33.0331 26.1106 32.2791 26.0033 31.521 26L31.521 19C31.521 18.4477 31.0733 18 30.521 18 29.9687 18 29.521 18.4477 29.521 19L29.521 27.028C29.3764 29.1047 29.8079 31.1809 30.768 33.028 30.539 33.047 30.392 33.068 30.368 33.072L29.591 33.196 29.528 33.98C29.3793 36.072 29.8098 38.1645 30.772 40.028 30.543 40.047 30.396 40.068 30.372 40.072L29.595 40.196 29.532 40.98C29.3834 43.0723 29.8138 45.1651 30.776 47.029 30.547 47.047 30.4 47.068 30.376 47.072L29.599 47.196 29.536 47.98C29.522 48.159 29.211 52.38 31.324 54.78L31.324 54.78C32.7066 56.1442 34.5582 56.9287 36.5 56.973L36.5 67.21C28.963 67.53 22.6 68.129 17.5 68.781L17.5 58.973C19.4462 58.9315 21.3025 58.1464 22.688 56.779L22.688 56.779C24.802 54.379 24.488 50.159 24.477 49.979L24.414 49.195 23.637 49.071C23.609 49.071 23.462 49.045 23.237 49.027 24.1992 47.1635 24.6297 45.071 24.481 42.979L24.418 42.195 23.641 42.071C23.613 42.071 23.466 42.045 23.241 42.027 24.2032 40.1635 24.6336 38.071 24.485 35.979L24.422 35.195 23.645 35.071C23.617 35.071 23.47 35.045 23.245 35.027 24.1943 33.2119 24.6277 31.1712 24.498 29.127 24.498 29.102 24.512 29.081 24.512 29.055L24.512 21C24.512 20.4477 24.0643 20 23.512 20 22.9597 20 22.512 20.4477 22.512 21L22.512 28C21.7374 28.0016 20.9669 28.1121 20.223 28.328 20.374 27.806 20.4709 27.2698 20.512 26.728 20.512 23.971 18.345 21.449 17.512 20.581L17.512 14C17.512 13.4477 17.0643 13 16.512 13 15.9597 13 15.512 13.4477 15.512 14L15.512 20.587C14.68 21.456 12.512 23.987 12.512 26.802 12.5483 27.3143 12.632 27.8221 12.762 28.319 12.0332 28.1101 11.2791 28.0028 10.521 28L10.521 21C10.521 20.4477 10.0733 20 9.521 20 8.96871 20 8.521 20.4477 8.521 21L8.521 29.028C8.37642 31.1047 8.80794 33.1809 9.768 35.028 9.539 35.047 9.392 35.068 9.368 35.072L8.591 35.196 8.528 35.98C8.37935 38.072 8.80975 40.1645 9.772 42.028 9.543 42.047 9.396 42.068 9.372 42.072L8.595 42.196 8.532 42.98C8.38335 45.072 8.81375 47.1645 9.776 49.028 9.547 49.046 9.4 49.068 9.376 49.072L8.599 49.196 8.536 49.98C8.522 50.159 8.211 54.38 10.324 56.78L10.324 56.78C11.7066 58.1442 13.5582 58.9287 15.5 58.973L15.5 69.049C10.667 69.721 7.134 70.411 5 70.88L5 72.927 5.218 72.879C10.5 71.7 25.256 68.966 48.046 68.966 70.738 68.966 85.494 71.688 90.784 72.858L91 72.906ZM21.187 55.459C20.1976 56.3913 18.9008 56.9285 17.542 56.969 17.657 55.569 18.037 53.45 19.042 52.303 19.9647 51.4088 21.2167 50.937 22.5 51 22.5511 52.588 22.0908 54.1503 21.187 55.457ZM21.187 48.459C20.1976 49.3913 18.9008 49.9285 17.542 49.969 17.657 48.569 18.037 46.45 19.042 45.303 19.9647 44.4088 21.2167 43.937 22.5 44 22.5511 45.588 22.0908 47.1503 21.187 48.457ZM21.187 41.459C20.1976 42.3913 18.9008 42.9285 17.542 42.969 17.657 41.569 18.037 39.45 19.042 38.303 19.9647 37.4088 21.2167 36.937 22.5 37 22.5511 38.588 22.0908 40.1503 21.187 41.457ZM22.5 30C22.5517 31.5873 22.0925 33.1493 21.19 34.456 20.2006 35.3883 18.9038 35.9255 17.545 35.966 17.66 34.566 18.04 32.447 19.045 31.3 19.9674 30.4077 21.2181 29.9371 22.5 30ZM11.813 55.457C10.9095 54.1502 10.4493 52.5879 10.5 51 11.7802 50.9384 13.0288 51.4089 13.95 52.3 14.959 53.446 15.34 55.562 15.45 56.963 14.0951 56.9187 12.8026 56.3835 11.813 55.457ZM11.813 48.457C10.9095 47.1502 10.4493 45.5879 10.5 44 11.7802 43.9384 13.0288 44.4089 13.95 45.3 14.959 46.446 15.34 48.562 15.45 49.963 14.0951 49.9187 12.8026 49.3835 11.813 48.457ZM11.813 41.457C10.9095 40.1502 10.4493 38.5879 10.5 37 11.7802 36.9384 13.0288 37.4089 13.95 38.3 14.959 39.446 15.34 41.562 15.45 42.963 14.0951 42.9187 12.8026 42.3835 11.813 41.457ZM11.813 34.457C10.9095 33.1502 10.4493 31.5879 10.5 30 11.7802 29.9384 13.0288 30.4089 13.95 31.3 14.959 32.446 15.34 34.562 15.45 35.963 14.0951 35.9187 12.8026 35.3835 11.813 34.457ZM16.06 30.226C15.124 29.2956 14.5679 28.05 14.5 26.732 14.6818 25.128 15.3843 23.6277 16.5 22.461 17.295 23.385 18.5 25.051 18.5 26.661 18.3794 28.0394 17.7928 29.3356 16.837 30.336 16.5731 30.3919 16.298 30.353 16.06 30.226ZM42.187 53.457C41.1976 54.3893 39.9008 54.9265 38.542 54.967 38.657 53.567 39.037 51.448 40.042 50.301 40.965 49.4075 42.217 48.9365 43.5 49 43.5511 50.588 43.0908 52.1503 42.187 53.457ZM42.187 46.457C41.1976 47.3893 39.9008 47.9265 38.542 47.967 38.657 46.567 39.037 44.448 40.042 43.301 40.965 42.4075 42.217 41.9365 43.5 42 43.5511 43.588 43.0908 45.1503 42.187 46.457ZM42.187 39.457C41.1976 40.3893 39.9008 40.9265 38.542 40.967 38.657 39.567 39.037 37.448 40.042 36.301 40.965 35.4075 42.217 34.9365 43.5 35 43.5511 36.588 43.0908 38.1503 42.187 39.457ZM43.5 28C43.5517 29.5873 43.0925 31.1493 42.19 32.456 41.2006 33.3883 39.9038 33.9255 38.545 33.966 38.66 32.566 39.04 30.447 40.045 29.3 40.9674 28.4077 42.2181 27.9371 43.5 28ZM32.813 53.457C31.9095 52.1502 31.4493 50.5879 31.5 49 32.7802 48.9384 34.0288 49.4089 34.95 50.3 35.959 51.446 36.34 53.562 36.455 54.963 35.0984 54.9199 33.8039 54.3846 32.813 53.457ZM32.813 46.457C31.9095 45.1502 31.4493 43.5879 31.5 42 32.7802 41.9384 34.0288 42.4089 34.95 43.3 35.959 44.446 36.34 46.562 36.455 47.963 35.0984 47.9199 33.8039 47.3846 32.813 46.457ZM32.813 39.457C31.9095 38.1502 31.4493 36.5879 31.5 35 32.7802 34.9384 34.0288 35.4089 34.95 36.3 35.959 37.446 36.34 39.562 36.455 40.963 35.0984 40.9199 33.8039 40.3846 32.813 39.457ZM32.813 32.457C31.9095 31.1502 31.4493 29.5879 31.5 28 32.7802 27.9384 34.0288 28.4089 34.95 29.3 35.959 30.446 36.34 32.562 36.455 33.963 35.0984 33.9199 33.8039 33.3846 32.813 32.457ZM37.06 28.226C36.124 27.2956 35.5679 26.05 35.5 24.732 35.6818 23.128 36.3843 21.6277 37.5 20.461 38.3 21.385 39.5 23.051 39.5 24.661 39.3794 26.0394 38.7928 27.3356 37.837 28.336 37.5731 28.3914 37.2981 28.3525 37.06 28.226ZM63.187 53.457C62.1976 54.3893 60.9008 54.9265 59.542 54.967 59.657 53.567 60.037 51.448 61.042 50.301 61.965 49.4075 63.217 48.9365 64.5 49 64.5511 50.588 64.0908 52.1503 63.187 53.457ZM63.187 46.457C62.1976 47.3893 60.9008 47.9265 59.542 47.967 59.657 46.567 60.037 44.448 61.042 43.301 61.965 42.4075 63.217 41.9365 64.5 42 64.5511 43.588 64.0908 45.1503 63.187 46.457ZM63.187 39.457C62.1976 40.3893 60.9008 40.9265 59.542 40.967 59.657 39.567 60.037 37.448 61.042 36.301 61.965 35.4075 63.217 34.9365 64.5 35 64.5511 36.588 64.0908 38.1503 63.187 39.457ZM64.5 28C64.5517 29.5873 64.0925 31.1493 63.19 32.456 62.2006 33.3883 60.9038 33.9255 59.545 33.966 59.66 32.566 60.04 30.447 61.045 29.3 61.9674 28.4077 63.2181 27.9371 64.5 28ZM53.813 53.457C52.9095 52.1502 52.4493 50.5879 52.5 49 53.7802 48.9384 55.0288 49.4089 55.95 50.3 56.959 51.446 57.34 53.562 57.455 54.963 56.0984 54.9199 54.8039 54.3846 53.813 53.457ZM53.813 46.457C52.9095 45.1502 52.4493 43.5879 52.5 42 53.7802 41.9384 55.0288 42.4089 55.95 43.3 56.959 44.446 57.34 46.562 57.455 47.963 56.0984 47.9199 54.8039 47.3846 53.813 46.457ZM53.813 39.457C52.9095 38.1502 52.4493 36.5879 52.5 35 53.7802 34.9384 55.0288 35.4089 55.95 36.3 56.959 37.446 57.34 39.562 57.455 40.963 56.0984 40.9199 54.8039 40.3846 53.813 39.457ZM53.813 32.457C52.9095 31.1502 52.4493 29.5879 52.5 28 53.7802 27.9384 55.0288 28.4089 55.95 29.3 56.959 30.446 57.34 32.562 57.455 33.963 56.0984 33.9199 54.8039 33.3846 53.813 32.457ZM58.06 28.226C57.124 27.2956 56.5679 26.05 56.5 24.732 56.6818 23.128 57.3843 21.6277 58.5 20.461 59.3 21.385 60.5 23.051 60.5 24.661 60.3794 26.0394 59.7928 27.3356 58.837 28.336 58.5731 28.3914 58.2981 28.3525 58.06 28.226ZM84.187 55.457C83.1976 56.3893 81.9008 56.9265 80.542 56.967 80.657 55.567 81.042 53.448 82.042 52.301 82.965 51.4075 84.217 50.9365 85.5 51 85.5511 52.588 85.0908 54.1503 84.187 55.457ZM84.187 48.457C83.1976 49.3893 81.9008 49.9265 80.542 49.967 80.657 48.567 81.042 46.448 82.042 45.301 82.965 44.4075 84.217 43.9365 85.5 44 85.5511 45.588 85.0908 47.1503 84.187 48.457ZM84.187 41.457C83.1976 42.3893 81.9008 42.9265 80.542 42.967 80.657 41.567 81.042 39.448 82.042 38.301 82.965 37.4075 84.217 36.9365 85.5 37 85.5511 38.588 85.0908 40.1503 84.187 41.457ZM85.5 30C85.5517 31.5873 85.0925 33.1493 84.19 34.456 83.2006 35.3883 81.9038 35.9255 80.545 35.966 80.66 34.566 81.045 32.447 82.045 31.3 82.9674 30.4077 84.2181 29.9371 85.5 30ZM74.813 55.457C73.9095 54.1502 73.4493 52.5879 73.5 51 74.7802 50.9384 76.0288 51.4089 76.95 52.3 77.959 53.446 78.34 55.562 78.455 56.963 77.0984 56.9199 75.8039 56.3846 74.813 55.457ZM74.813 48.457C73.9095 47.1502 73.4493 45.5879 73.5 44 74.7802 43.9384 76.0288 44.4089 76.95 45.3 77.959 46.446 78.34 48.562 78.455 49.963 77.0984 49.9199 75.8039 49.3846 74.813 48.457ZM74.813 41.457C73.9095 40.1502 73.4493 38.5879 73.5 37 74.7802 36.9384 76.0288 37.4089 76.95 38.3 77.959 39.446 78.34 41.562 78.455 42.963 77.0984 42.9199 75.8039 42.3846 74.813 41.457ZM74.813 34.457C73.9095 33.1502 73.4493 31.5879 73.5 30 74.7802 29.9384 76.0288 30.4089 76.95 31.3 77.959 32.446 78.34 34.562 78.455 35.963 77.0984 35.9199 75.8039 35.3846 74.813 34.457ZM79.06 30.226C78.124 29.2956 77.5679 28.05 77.5 26.732 77.6818 25.128 78.3843 23.6277 79.5 22.461 80.3 23.385 81.5 25.051 81.5 26.661 81.3794 28.0394 80.7928 29.3356 79.837 30.336 79.5731 30.3919 79.298 30.353 79.06 30.226Z"/></g></svg>