<svg viewBox="0 0 96 96" xmlns="http://www.w3.org/2000/svg" xmlns:xlink="http://www.w3.org/1999/xlink" id="Icons_PackingBoxOpen_M" overflow="hidden"><g id="Icons"><path d="M52 80.9 59.714 76.272 59.714 69.372 52 74ZM54 75.129 57.714 72.9 57.714 75.139 54 77.367Z"/><path d="M61.541 7.891 49.47 18.855 48 17.964 46.511 18.864 34.429 7.891 5.8 25.246 17.862 36.229 17.429 36.492 17.429 38.433 5.8 49.022 17.433 56.072 17.433 70.772 48 89.3 78.571 70.775 78.571 56.054 90.171 49.022 78.571 38.46 78.571 36.492 78.12 36.218 90.175 25.246ZM9.122 25.569 34.189 10.376 44.727 19.947 23.964 32.531 19.63 35.131ZM9.122 48.699 19.647 39.119 44.727 54.319 34.189 63.891ZM47 86.358 19.429 69.648 19.429 57.284 34.429 66.376 46.512 55.4 47 55.7ZM48 53.86 20.231 37.132 25.088 34.189 47.993 20.436 75.779 37.176 75.552 37.312 75.532 37.278 67.214 42.319ZM76.571 69.648 49 86.358 49 55.7 49.47 55.415 61.541 66.376 76.571 57.267ZM86.849 48.7 61.781 63.891 51.255 54.33 68.191 44.065 76.366 39.157ZM76.336 35.137 51.255 19.937 61.781 10.377 86.849 25.569Z"/></g></svg>